<svg width="265" height="342" xmlns="http://www.w3.org/2000/svg" xmlns:xlink="http://www.w3.org/1999/xlink"><g transform="translate(25,0)"><g class="axis" transform="translate(0, 272)"><g class="tick" transform="translate(0,0)" style="opacity: 1;"><line y2="6" style="fill: none; stroke: rgb(85, 85, 85);" x2="0"/><text dy=".71em" y="9" style="text-anchor: middle; fill: rgb(85, 85, 85);" x="0">0</text><line class="grid-line" x1="0" y1="0" x2="0" y2="-272"/></g><g class="tick" transform="translate(40.636959075927734,0)" style="opacity: 1;"><line y2="6" style="fill: none; stroke: rgb(85, 85, 85);" x2="0"/><text dy=".71em" y="9" style="text-anchor: middle; fill: rgb(85, 85, 85);" x="0">500k</text><line class="grid-line" x1="0" y1="0" x2="0" y2="-272"/></g><g class="tick" transform="translate(81.27391815185547,0)" style="opacity: 1;"><line y2="6" style="fill: none; stroke: rgb(85, 85, 85);" x2="0"/><text dy=".71em" y="9" style="text-anchor: middle; fill: rgb(85, 85, 85);" x="0">1M</text><line class="grid-line" x1="0" y1="0" x2="0" y2="-272"/></g><g class="tick" transform="translate(121.91088104248047,0)" style="opacity: 1;"><line y2="6" style="fill: none; stroke: rgb(85, 85, 85);" x2="0"/><text dy=".71em" y="9" style="text-anchor: middle; fill: rgb(85, 85, 85);" x="0">1.5M</text><line class="grid-line" x1="0" y1="0" x2="0" y2="-272"/></g><g class="tick" transform="translate(162.54783630371094,0)" style="opacity: 1;"><line y2="6" style="fill: none; stroke: rgb(85, 85, 85);" x2="0"/><text dy=".71em" y="9" style="text-anchor: middle; fill: rgb(85, 85, 85);" x="0">2M</text><line class="grid-line" x1="0" y1="0" x2="0" y2="-272"/></g><g class="tick" transform="translate(203.18479919433594,0)" style="opacity: 1;"><line y2="6" style="fill: none; stroke: rgb(85, 85, 85);" x2="0"/><text dy=".71em" y="9" style="text-anchor: middle; fill: rgb(85, 85, 85);" x="0">2.5M</text><line class="grid-line" x1="0" y1="0" x2="0" y2="-272"/></g><path class="domain" style="fill: none; stroke: rgb(85, 85, 85);" d="M0,6V0H215V6"/></g><g class="row _0" transform="translate(0,5)" original-title=""><rect width="215" height="128.5" style="fill: rgb(73, 114, 189); stroke: rgb(255, 255, 255);" transform=""/><text x="10" y="64.25" dy="0.35em" class="row _0" style="fill: rgb(255, 255, 255);" transform="">Female</text><title>Female: 2,645,375</title></g><g class="row _1" transform="translate(0,138.5)" original-title=""><rect width="196.0518792231725" height="128.5" style="fill: rgb(73, 114, 189); stroke: rgb(255, 255, 255);" transform=""/><text x="10" y="64.25" dy="0.35em" class="row _1" style="fill: rgb(255, 255, 255);" transform="">Male</text><title>Male: 2,412,236</title></g></g><text class="scaleLabel" text-anchor="middle" x="132.5" y="307" dy="15" style="fill: rgb(85, 85, 85);">Number of deaths</text><defs xmlns="http://www.w3.org/1999/xhtml"><style xmlns="http://www.w3.org/2000/svg" type="text/css">text { font-family: Verdana; font-size: 12px; }</style></defs></svg>